<svg xmlns="http://www.w3.org/2000/svg" xmlns:xlink="http://www.w3.org/1999/xlink" id="Layer_1" width="1062.1" height="297.2" x="0" y="0" enable-background="new -64 694.9 1062.1 297.2" version="1.1" viewBox="-64 694.9 1062.1 297.2" xml:space="preserve"><g><path fill="#231F20" d="M974.7,837.9c16,6.3,23,18.2,23.4,34.6c0.3,16.6-6.5,29.3-21,37.6c-5.9,3.4-12.4,4.9-19.1,5 c-24.8,0.2-49.7,0.1-74.5,0.2c-2.7,0-3.7-0.6-3.8-3.6c-0.4-12.6-0.5-12.8,12.3-12.5c4.6,0.1,6.2-0.8,6.2-5.9 c-0.3-34.5-0.2-69,0-103.5c0-4.7-1.4-6.3-5.9-5.6c-0.3,0.1-0.7,0-1,0c-11.7,0-11.6,0-11.6-11.8c0-3.5,1.2-4.2,4.3-4.1 c9.3,0.1,18.7-0.1,28,0.1c15,0.2,30-0.6,45,0.5c17.8,1.4,29.8,10.6,34.1,25.9c4.1,14.9,0,33.1-15.2,41.8 C975.5,836.8,975.3,837.2,974.7,837.9z M918.9,873.1c0,7.2,0.1,14.3,0,21.5c0,2.3,0.3,3.7,3.2,3.7c11-0.2,22,0.2,33-0.3 c12.7-0.7,21.2-10.1,21.9-23c0.7-14.8-6.3-24.9-19.6-26.9c-11.9-1.9-23.9-0.4-35.9-0.8c-2.9-0.1-2.5,2-2.5,3.8 C918.9,858.4,918.9,865.7,918.9,873.1z M918.9,807.4c0,6.5,0.1,13,0,19.4c0,2.2,0.4,3.4,3,3.4c10.3-0.1,20.6,0.3,30.9-0.3 c11.1-0.6,18.2-9.4,18.3-21.6c0.2-13-5.8-20.7-17.2-22.3c-10.6-1.5-21.2-0.4-31.9-0.8c-2.9-0.1-3.2,1.4-3.2,3.7 C919,795.1,918.9,801.3,918.9,807.4z"/><path fill="#231F20" d="M748,841.6c0-17.5-0.1-35,0.1-52.5c0.1-4-1.2-5.5-5.1-4.9c-1,0.1-2,0.1-3,0c-3.3-0.3-8,1.6-9.5-0.8 c-2.2-3.7-0.6-8.7-0.7-13.2c0-1.5,1.1-1.9,2.4-1.8c27.3,0.5,54.8-2.4,81.8,1.5c29.7,4.3,49.3,24.9,54.5,54.7 c3.3,19.3,2.2,38.3-7.3,55.9c-11.9,22-31.4,33-55.6,34.2c-24.1,1.2-48.3,0.4-72.4,0.5c-2.5,0-3.4-0.7-3.5-3.4 c-0.5-12.8-0.6-13,12-12.7c4.9,0.1,6.5-0.9,6.4-6.2C747.7,875.9,748,858.8,748,841.6z M768.9,841.9c0,17.3,0.1,34.7-0.1,52 c0,3.5,1,4.6,4.5,4.5c8.5-0.3,17,0.1,25.5-0.3c24.3-1,41.4-14.6,47.4-37.8c3.5-13.7,3.2-27.4-1.2-40.9c-6-18.4-18.6-29.7-37.8-32.9 c-11.7-1.9-23.6-1.1-35.4-1.1c-3.5,0-2.9,2.5-2.9,4.5C768.9,807.2,768.9,824.5,768.9,841.9z"/><path fill="#231F20" d="M64.9,695.1c2.7-0.7,4.8,0.9,7,2.1c38.9,22.5,77.9,44.9,116.8,67.4c5,2.9,5.3,4.5,0.7,7.1 c-19,11-38.1,21.9-57.2,32.9c-0.6,0.3-1.2,0.4-1.9,0.6c-1.8,0-3.1-1-4.6-1.8c-20.3-11.8-40.6-23.5-60.8-35.2 C64.9,743.8,64.9,719.4,64.9,695.1z"/><path fill="#231F20" d="M64.9,695.1c0,24.4,0,48.7,0,73.1c0,0.3,0,0.6,0,0.9c-1.4,0.6-2.8,1-4.1,1.7c-13.5,7.8-27,15.5-40.4,23.5 c-6.5,3.9-13.6,6.8-19.4,11.9c-20.3-11.7-40.5-23.2-60.6-34.9c-3.9-2.3-3.6-3.8,1-6.6c23-13.3,46-26.6,69.1-39.9 c16.3-9.4,32.6-18.7,48.8-28.1C61,695.7,62.7,694.6,64.9,695.1z"/><path fill="#231F20" d="M675.7,825.6c-4.4,0-7.7,0.7-10.6-0.1c-6.2-1.8-2-7.1-2.9-10.8c-0.5-2-1-4.8,3-4.8c14,0.1,28,0.1,42,0 c2.2,0,3,0.9,2.9,3c0,0.5,0,1,0,1.5c0.2,10.9,0.2,10.9-10.6,11.2c-2.4,0.1-4,0.9-5.5,2.7c-7.1,8.4-14.3,16.7-21.4,25.1 c-1,1.1-2.8,2.2-0.7,4.1c6.3,5.5,9.2,13.4,13.5,20.3c2.9,4.6,5.9,9.3,8.3,14.3c2.7,5.7,6.7,8.5,13,7.7c4.3-0.6,5.3,1.2,5.2,5.3 c-0.2,10.3-0.1,9.6-10.5,10.6c-12.7,1.2-20.7-3.4-26.1-15c-4.8-10.2-11.2-19.7-17-29.4c-2.6-4.3-13.1-7.2-17.4-5 c-1.1,0.6-1.1,1.6-1.1,2.5c0,9.3,0,18.7,0,28c0,2.5,1.2,2.9,3.4,3.1c11,0.7,10.9,0.7,10.8,11.7c0,3-0.7,4-3.9,4 c-14.5-0.2-29-0.2-43.5-0.1c-2.9,0-3.6-0.9-3.7-3.7c-0.3-11.9-0.3-12,11.7-11.8c4.1,0.1,5.3-1.1,5.3-5.3 c-0.2-35.1-0.2-70.3,0-105.4c0-3.9-0.9-5.6-4.9-5c-0.5,0.1-1,0-1.5,0c-12.7,0-12.6,0-11.5-12.8c0.2-2.2,0.9-2.9,3-2.9 c10.7,0.1,21.3,0.1,32,0c3.6,0,2.9,2.4,2.9,4.4c0,23.8,0.1,47.6-0.1,71.5c0,4.6,0.9,6,5.9,6.2c7,0.3,11.8-1.6,15.9-7.6 C665.3,837.1,670.3,832,675.7,825.6z"/><path fill="#231F20" d="M445.7,897.2c-12.9,20.5-30.3,23.4-46.4,18.9c-12.4-3.5-20.5-11.7-22.3-24.8c-1.9-13.8,3-24.5,15.4-31.4 c10.1-5.7,21.2-7.7,32.5-8.6c5-0.4,10-0.7,15-0.5c3.6,0.1,4.5-1.3,4.4-4.7c-0.2-16.2-10.8-24.4-28-21.6c-7.6,1.3-14.9,3.8-21.3,8.1 c-2.5,1.7-3.7,1.1-4.9-1.3c-1.1-2.3-2.1-4.6-3.6-6.5c-3.3-4.1-1.6-6,2.3-8.1c15-8.3,31-11.2,47.8-7.8c18.2,3.7,27.9,16.9,28.1,37.7 c0.2,15.3,0,30.6,0.1,46c0,6.6,0.5,7.2,7,7.2c8.1,0.1,8.1,0.1,8.1,8.3c0,1-0.1,2,0,3c0.5,3.5-0.9,4.6-4.4,4.5 c-5.5-0.3-11,0-16.5-0.1c-9.9-0.1-13.4-3.6-13.2-13.7C445.7,900.4,445.7,899.2,445.7,897.2z M431,864.1c-4.6,0.1-13.1,1-21.3,4.2 c-5.4,2.2-10,5.4-11.9,11.2c-2,6.3-0.5,11.9,3.7,16.7c5.1,5.8,12,6.9,19.2,5.5c11.7-2.4,20.9-13.2,23.2-27.1 C445.7,863.9,445.7,863.9,431,864.1z"/><path fill="#231F20" d="M351,834c0,13.5,0.1,27,0,40.5c-0.1,16.3-5.7,30-20.7,37.7c-15.7,8.1-31.9,8-47.2-1.2 c-12.8-7.7-17.3-20.1-17.9-34.3c-0.4-10.8-0.4-10.8,10.3-10.8c9.6,0,9.6,0,10.2,10.1c1,17.4,13.8,27,29.6,22.2 c8.9-2.7,14.6-10.9,14.7-22.6c0.3-17.8,0.1-35.7,0.1-53.5c0-11-0.2-22,0.1-33c0.1-4.1-1.3-5.2-5.1-4.9c-4.3,0.3-8.7,0-13,0.1 c-2.4,0.1-3.1-0.8-3.2-3.2c-0.7-12.7-0.8-12.7,11.6-12.7c14.3,0,28.7,0.1,43-0.1c3.2,0,4.3,0.7,4.3,4.2c0,11.7,0.2,11.9-11.6,11.7 c-4.2-0.1-5.3,1.3-5.3,5.4C351.1,804.4,351,819.2,351,834z"/><path fill="#231F20" d="M491.5,862.6c0.4-27.2,16.6-48,42.6-53.7c14.9-3.2,29.6-1.8,43.2,5.5c9.6,5.2,14.4,17.8,11.1,28.1 c-0.5,1.5-1.4,1.6-2.6,1.6c-1.7,0-3.3,0.1-5,0.1c-3,0-6.4,0.8-8.9-0.4c-2.8-1.3-0.7-5.1-1.4-7.8c-0.9-3.5-3.2-5.7-6.2-7.4 c-20.9-11.5-47.9,1.9-51.5,25.5c-0.9,6.2-0.9,12.3,0.5,18.3c4.9,21.1,25.8,32.5,47.9,26.1c7-2,13.3-5.3,18.9-9.9 c2.1-1.7,3.3-1.8,4.4,0.9c0.8,2,1.9,3.9,2.9,5.8c3.3,6.4,3.3,6.4-2.4,10.6c-26.4,19.3-65,14.3-83.4-10.7 C494.4,885.7,491.4,874.6,491.5,862.6z"/><path fill="#231F20" d="M194.6,917c-0.9,2.9-3.6,3.7-5.9,5c-38.7,22.4-77.4,44.7-116.1,67c-2.4,1.4-4.6,3.4-7.8,2.9 c0-12.3,0-24.6,0-36.9c11.4-4.8,21.6-11.8,32.3-17.8c20.6-11.7,41-23.6,61.4-35.4c1.3-0.7,2.7-1.2,4-1.8c4.4,2.4,8.6,5,13.1,7.2 C182.1,910.4,187.5,915.4,194.6,917z"/><path fill="#231F20" d="M64.8,955.1c0,12.3,0,24.6,0,36.9c-2.2,0.3-3.8-1-5.5-2c-38.9-22.4-77.8-44.8-116.6-67.2 c-2.1-1.2-4.6-2.1-6-4.3c9.6-7.3,20.5-12.4,30.9-18.3c12.3,5.9,23.7,13.3,35.6,20.1c18.2,10.4,36.3,20.9,54.5,31.4 C60,952.9,62.5,954,64.8,955.1z"/><path fill="#231F20" d="M64.8,769.1c0-0.3,0-0.6,0-0.9c20.3,11.7,40.6,23.5,60.8,35.2c1.4,0.8,2.8,1.8,4.6,1.8 c-5.5,4.5-12.1,7.5-18.2,11c-13.4,7.9-26.9,15.6-40.4,23.3c-2.1,1.2-4.1,2.9-6.8,2.5C64.8,817.7,64.8,793.4,64.8,769.1z"/><path fill="#231F20" d="M97.2,863c5.7-4.6,12.4-7.7,18.7-11.3c15.8-9.1,31.7-18.1,47.6-27.1c2.6,2.7,6.1,3.9,9.2,5.7 c7.1,4.1,13.9,8.8,21.6,11.9c-0.1,2-1.7,2.8-3.1,3.6c-20,11.5-39.9,23-59.9,34.5c-0.7,0.4-1.5,0.6-2.3,0.8c-2.9-3.4-7-4.9-10.7-7 C111.2,870.3,104.9,865.2,97.2,863z"/><path fill="#231F20" d="M-32.8,824.7c18.6,10.6,37.2,21.2,55.8,31.9c3,1.7,5.9,3.6,8.9,5.4c-2.8,3-6.6,4.5-10.1,6.3 c-7.4,4-14.2,9.3-22.3,12c-20.3-11.6-40.6-23.3-60.8-35c-1.2-0.7-2.8-1.4-2.7-3.2C-53,837.4-43.2,830.5-32.8,824.7z"/><path fill="#231F20" d="M64.8,769.1c0,24.3,0,48.7,0,73c-1.4,0.3-2.6-0.4-3.8-1c-20.1-11.6-40.2-23.3-60.2-34.9 c5.8-5.1,12.9-8,19.4-11.9c13.4-7.9,26.9-15.7,40.4-23.5C62,770,63.5,769.6,64.8,769.1z"/><path fill="#231F20" d="M97.2,863c7.8,2.2,14,7.4,20.9,11.1c3.7,2,7.8,3.6,10.7,7c-7.8,5.7-16.5,9.9-24.7,14.8 c-10.2,6-20.4,11.9-30.7,17.7c-2.7,1.5-5.1,3.8-8.6,3.5c0-12.3,0-24.6,0-36.9c9.7-3.9,18.2-10.1,27.4-15 C93.9,864.3,95.2,863,97.2,863z"/><path fill="#231F20" d="M64.8,880.1c0,12.3,0,24.6,0,36.9c-1.4,0.3-2.6-0.4-3.8-1c-20.5-11.9-41-23.8-61.5-35.7 c8.1-2.7,14.8-8,22.3-12c3.5-1.8,7.3-3.3,10.1-6.3c8.2,4.6,16.3,9.3,24.5,13.9C59.2,877.4,62.1,878.7,64.8,880.1z"/><path fill="#231F20" d="M-32.3,900.1c-10.4,5.9-21.3,11-30.9,18.3c-1.6-1.1-1.5-3-1.5-4.5c-0.1-9.3-0.1-18.6-0.1-27.9 c0-2.7,0.9-4.6,3.9-2.8C-51.4,888.8-41.4,893.8-32.3,900.1z"/><path fill="#231F20" d="M-32.8,824.7c-10.4,5.8-20.2,12.7-31.2,17.5c-1.9-7.8-0.6-15.8-0.8-23.7c-0.1-3.5-1.9-8.5,1.2-10.3 c3.3-1.8,6.7,2.4,9.9,4.2C-46.6,816.3-39.7,820.6-32.8,824.7z"/><path fill="#231F20" d="M194.6,917c-7.1-1.6-12.5-6.6-18.9-9.7c-4.5-2.2-8.7-4.8-13.1-7.2c9-6.3,18.8-11.1,28.2-16.7 c2.4-1.5,4.1-1,4.1,2.3C194.8,896.1,194.7,906.6,194.6,917z"/><path fill="#231F20" d="M194.2,842.1c-7.7-3-14.5-7.8-21.6-11.9c-3.1-1.8-6.6-3-9.2-5.7c9.2-5.4,18.3-10.8,27.5-16.2 c1.8-1,4-1.4,3.9,1.5C194.6,820.6,195.8,831.4,194.2,842.1z"/></g></svg>